<svg width="18" height="18" viewBox="0 0 18 18" fill="none" xmlns="http://www.w3.org/2000/svg">
<path fill-rule="evenodd" clip-rule="evenodd" d="M12.1057 4.34842C12.2216 4.2314 12.3793 4.16522 12.544 4.16443C12.7087 4.16364 12.8669 4.2283 12.9839 4.3442L17.396 8.71401C17.513 8.8299 17.5792 8.98754 17.58 9.15223C17.5807 9.31692 17.5161 9.47518 17.4002 9.59219L13.0304 14.0042C12.9145 14.1212 12.7568 14.1874 12.5922 14.1882C12.4275 14.189 12.2692 14.1243 12.1522 14.0085C12.0352 13.8926 11.969 13.7349 11.9682 13.5702C11.9674 13.4055 12.0321 13.2473 12.148 13.1303L16.0808 9.15944L12.11 5.2266C11.993 5.11071 11.9268 4.95308 11.926 4.78839C11.9252 4.62369 11.9899 4.46543 12.1057 4.34842Z" fill="white"/>
<path fill-rule="evenodd" clip-rule="evenodd" d="M0.52985 9.23436C0.529354 9.15268 0.544977 9.0717 0.575824 8.99607C0.60667 8.92044 0.652135 8.85164 0.709613 8.7936C0.767091 8.73557 0.835454 8.68945 0.910785 8.65787C0.986117 8.6263 1.06694 8.6099 1.14862 8.60961L16.9559 8.53361C17.1208 8.53282 17.2793 8.59756 17.3965 8.7136C17.5136 8.82964 17.5799 8.98747 17.5807 9.15237C17.5815 9.31727 17.5167 9.47573 17.4007 9.5929C17.2847 9.71006 17.1268 9.77633 16.9619 9.77712L1.1546 9.85312C1.07292 9.85362 0.991943 9.83799 0.916311 9.80715C0.84068 9.7763 0.771877 9.73084 0.713843 9.67336C0.655809 9.61588 0.609686 9.54752 0.578113 9.47219C0.546541 9.39685 0.53014 9.31603 0.52985 9.23436V9.23436Z" fill="white"/>
</svg>
