<svg width="24" height="24" viewBox="0 0 24 24" fill="none" xmlns="http://www.w3.org/2000/svg">
<path d="M19.5 15H15C14.175 15 13.5 14.325 13.5 13.5C13.5 12.675 14.175 12 15 12H19.5C19.5 12 24 6.98438 24 4.5C24 2.01562 21.9844 0 19.5 0C17.0156 0 15 2.01562 15 4.5C15 5.69531 16.0406 7.47188 17.1234 9H15C12.5203 9 10.5 11.0203 10.5 13.5C10.5 15.9797 12.5203 18 15 18H19.5C20.325 18 21 18.675 21 19.5C21 20.325 20.325 21 19.5 21H8.69531C7.94531 22.1625 7.11094 23.2359 6.47812 24H19.5C21.9797 24 24 21.9797 24 19.5C24 17.0203 21.9797 15 19.5 15ZM19.5 3C20.3297 3 21 3.67031 21 4.5C21 5.32969 20.3297 6 19.5 6C18.6703 6 18 5.32969 18 4.5C18 3.67031 18.6703 3 19.5 3ZM4.5 12C2.01562 12 0 14.0156 0 16.5C0 18.9844 4.5 24 4.5 24C4.5 24 9 18.9844 9 16.5C9 14.0156 6.98438 12 4.5 12ZM4.5 18C3.67031 18 3 17.3297 3 16.5C3 15.6703 3.67031 15 4.5 15C5.32969 15 6 15.6703 6 16.5C6 17.3297 5.32969 18 4.5 18Z" fill="#3B3A48"/>
</svg>
