<svg width="29" height="29" viewBox="0 0 29 29" fill="none" xmlns="http://www.w3.org/2000/svg">
<path d="M14.5013 4.83464C19.8301 4.83464 24.168 9.17255 24.168 14.5013C24.168 19.8301 19.8301 24.168 14.5013 24.168C9.17255 24.168 4.83464 19.8301 4.83464 14.5013C4.83464 9.17255 9.17255 4.83464 14.5013 4.83464ZM14.5013 2.41797C7.82768 2.41797 2.41797 7.82768 2.41797 14.5013C2.41797 21.1749 7.82768 26.5846 14.5013 26.5846C21.1749 26.5846 26.5846 21.1749 26.5846 14.5013C26.5846 7.82768 21.1749 2.41797 14.5013 2.41797ZM19.093 18.6096L15.7096 14.0989V8.45964H13.293V14.9037L17.1596 20.0584L19.093 18.6084V18.6096Z" fill="#3B3A48"/>
</svg>
