<svg width="200" height="200" viewBox="0 0 200 200" fill="none" xmlns="http://www.w3.org/2000/svg">
<path d="M187.928 0L100 100L187.928 200H195.121C197.816 200 200 197.815 200 195.121V4.8793C200 2.18477 197.815 0 195.121 0H187.928Z" fill="#2EA2EF"/>
<path d="M0 4.8793V195.121C0 197.815 2.18477 200 4.8793 200H187.928V0H4.8793C2.18477 0 0 2.18477 0 4.8793Z" fill="#54BBFF"/>
<path d="M175.855 12.0723L100 100L175.855 187.928H187.928V12.0723H175.855Z" fill="#C6E8FF"/>
<path d="M175.855 12.0723H12.0723V187.927H175.855V12.0723Z" fill="#DEF1FF"/>
<path d="M106.587 45.8927C105.745 45.6099 104.881 45.4731 104.025 45.4731C101.553 45.4731 99.1597 46.6149 97.6094 48.6618L77.489 75.2212C74.8051 78.7645 75.5012 83.8122 79.0445 86.4966C80.4984 87.5981 82.2051 88.1306 83.8984 88.1302C86.332 88.1302 88.7371 87.031 90.3199 84.9415L95.9765 77.4739V146.479C95.9765 150.924 99.5797 154.528 104.025 154.528C108.47 154.528 112.073 150.925 112.073 146.479V53.5216C112.072 50.0649 109.865 46.9938 106.587 45.8927Z" fill="#2EA2EF"/>
</svg>
