<svg width="28" height="28" viewBox="0 0 28 28" fill="none" xmlns="http://www.w3.org/2000/svg">
<path d="M14 0C8.57216 0 4.15625 4.41591 4.15625 9.84375C4.15625 11.6776 4.66424 13.4673 5.62565 15.02L13.4397 27.6122C13.5894 27.8534 13.8531 28 14.1367 28C14.1389 28 14.141 28 14.1432 28C14.4292 27.9978 14.6935 27.8467 14.8404 27.6012L22.4553 14.887C23.3636 13.3672 23.8438 11.6232 23.8438 9.84375C23.8438 4.41591 19.4278 0 14 0ZM21.0474 14.0447L14.1243 25.6039L7.02007 14.1556C6.21983 12.8633 5.78594 11.3723 5.78594 9.84375C5.78594 5.32055 9.4768 1.62969 14 1.62969C18.5232 1.62969 22.2086 5.32055 22.2086 9.84375C22.2086 11.3269 21.8033 12.7798 21.0474 14.0447Z" fill="#3B3A48"/>
<path d="M14 4.92188C11.2861 4.92188 9.07812 7.12983 9.07812 9.84375C9.07812 12.5403 11.2501 14.7656 14 14.7656C16.7838 14.7656 18.9219 12.5107 18.9219 9.84375C18.9219 7.12983 16.7139 4.92188 14 4.92188ZM14 13.1359C12.1813 13.1359 10.7078 11.6576 10.7078 9.84375C10.7078 8.03447 12.1907 6.55156 14 6.55156C15.8093 6.55156 17.2867 8.03447 17.2867 9.84375C17.2867 11.6311 15.8476 13.1359 14 13.1359Z" fill="#3B3A48"/>
</svg>
