<svg width="32" height="26" viewBox="0 0 32 26" fill="none" xmlns="http://www.w3.org/2000/svg">
<path d="M19.9184 22.3159C24.6707 22.3159 28.5369 18.4497 28.5369 13.6975C28.5369 8.94525 24.6707 5.07898 19.9184 5.07898C15.1662 5.07898 11.2999 8.94519 11.2999 13.6975C11.2999 18.4498 15.1662 22.3159 19.9184 22.3159ZM13.5014 13.2357H12.2375C12.3431 11.4611 13.0527 9.84661 14.1633 8.59528L15.0545 9.48642C15.1446 9.57661 15.2628 9.62167 15.3809 9.62167C15.4991 9.62167 15.6172 9.57661 15.7074 9.48642C15.8877 9.30611 15.8877 9.01377 15.7074 8.83352L14.8162 7.94238C16.0676 6.83177 17.682 6.12217 19.4567 6.0166V7.28049C19.4567 7.53547 19.6633 7.74218 19.9184 7.74218C20.1734 7.74218 20.3801 7.53547 20.3801 7.28049V6.0166C22.1547 6.12217 23.7692 6.83177 25.0205 7.94238L24.1293 8.83352C23.949 9.01383 23.949 9.30618 24.1293 9.48642C24.2195 9.57655 24.3377 9.62167 24.4558 9.62167C24.574 9.62167 24.6922 9.57661 24.7823 9.48642L25.6734 8.59528C26.784 9.84661 27.4936 11.461 27.5991 13.2357H26.3353C26.0802 13.2357 25.8736 13.4424 25.8736 13.6974C25.8736 13.9523 26.0802 14.1591 26.3353 14.1591H27.5991C27.4936 15.9337 26.784 17.5482 25.6734 18.7994L24.7823 17.9084C24.6019 17.7281 24.3096 17.7281 24.1293 17.9084C23.949 18.0887 23.949 18.381 24.1293 18.5613L25.0205 19.4524C23.7691 20.563 22.1547 21.2726 20.3801 21.3782V20.1143C20.3801 19.8593 20.1734 19.6526 19.9184 19.6526C19.6633 19.6526 19.4567 19.8593 19.4567 20.1143V21.3782C17.682 21.2726 16.0676 20.563 14.8162 19.4524L15.7074 18.5613C15.8877 18.381 15.8877 18.0887 15.7074 17.9084C15.527 17.7281 15.2347 17.7281 15.0545 17.9084L14.1633 18.7995C13.0527 17.5482 12.3431 15.9338 12.2375 14.1591H13.5014C13.7564 14.1591 13.9631 13.9523 13.9631 13.6974C13.9631 13.4424 13.7564 13.2357 13.5014 13.2357Z" fill="#3B3A48"/>
<path d="M25.5166 22.5839C23.8431 23.6404 21.9073 24.1988 19.9184 24.1988C14.1279 24.1988 9.41705 19.488 9.41705 13.6975C9.41705 11.3533 10.1724 9.136 11.6013 7.28538C11.7571 7.08359 11.7199 6.79364 11.518 6.63777C11.3162 6.48197 11.0263 6.51921 10.8704 6.72106C9.31548 8.73475 8.49365 11.1472 8.49365 13.6975C8.49365 19.9971 13.6188 25.1222 19.9184 25.1222C22.0821 25.1222 24.1884 24.5145 26.0095 23.3646C26.2252 23.2285 26.2896 22.9434 26.1535 22.7277C26.0173 22.5122 25.7322 22.4478 25.5166 22.5839Z" fill="#3B3A48"/>
<path d="M22.7031 2.61666V0.866517C22.7031 0.388689 22.3144 0 21.8366 0H18.0006C17.5227 0 17.1341 0.388689 17.1341 0.866517V2.61617C15.298 3.07615 13.5946 3.98871 12.1768 5.29575C11.9894 5.46861 11.9775 5.76065 12.1503 5.94816C12.3231 6.13561 12.6152 6.14756 12.8027 5.9747C14.7462 4.18299 17.2734 3.19625 19.9186 3.19625C25.709 3.19625 30.4199 7.90712 30.4199 13.6976C30.4199 16.6697 29.152 19.5157 26.9412 21.5054C26.7517 21.676 26.7363 21.9679 26.9069 22.1574C26.998 22.2588 27.1238 22.3102 27.2501 22.3102C27.3602 22.3102 27.4706 22.2711 27.5589 22.1917C29.9639 20.0271 31.3433 16.9311 31.3433 13.6975C31.3434 8.35817 27.6613 3.86313 22.7031 2.61666ZM18.0575 2.42435V0.923398H21.7798V2.42528C21.1739 2.32555 20.5524 2.27285 19.9187 2.27285C19.2904 2.27285 18.6682 2.32407 18.0575 2.42435Z" fill="#3B3A48"/>
<path d="M19.9185 14.0209C20.0918 14.0209 20.2425 13.9255 20.3215 13.7844L21.9141 12.1917C22.0944 12.0114 22.0944 11.719 21.9141 11.5387C21.7338 11.3584 21.4415 11.3584 21.2611 11.5387L20.3802 12.4196V10.1712C20.3802 9.91619 20.1735 9.70947 19.9185 9.70947C19.6634 9.70947 19.4568 9.91619 19.4568 10.1712V13.5591C19.4568 13.8142 19.6635 14.0209 19.9185 14.0209Z" fill="#3B3A48"/>
<path d="M6.81314 13.8019C6.81314 13.5469 6.60642 13.3402 6.35144 13.3402H0.461699C0.206718 13.3402 0 13.5469 0 13.8019C0 14.0569 0.206718 14.2636 0.461699 14.2636H6.35144C6.60642 14.2636 6.81314 14.057 6.81314 13.8019Z" fill="#3B3A48"/>
<path d="M2.30325 11.5748H6.96715C7.22213 11.5748 7.42885 11.368 7.42885 11.1131C7.42885 10.8581 7.22213 10.6514 6.96715 10.6514H2.30325C2.04827 10.6514 1.84155 10.8581 1.84155 11.1131C1.84155 11.368 2.04821 11.5748 2.30325 11.5748Z" fill="#3B3A48"/>
<path d="M7.58262 7.96265H3.75772C3.50274 7.96265 3.29602 8.16936 3.29602 8.42435C3.29602 8.67933 3.50274 8.88604 3.75772 8.88604H7.58262C7.8376 8.88604 8.04432 8.67933 8.04432 8.42435C8.04432 8.1693 7.8376 7.96265 7.58262 7.96265Z" fill="#3B3A48"/>
<path d="M7.42879 16.2821C7.42879 16.0272 7.22207 15.8204 6.96709 15.8204H2.30325C2.04827 15.8204 1.84155 16.0272 1.84155 16.2821C1.84155 16.5371 2.04827 16.7438 2.30325 16.7438H6.96715C7.22207 16.7438 7.42879 16.5371 7.42879 16.2821Z" fill="#3B3A48"/>
<path d="M7.58262 18.5093H3.75772C3.50274 18.5093 3.29602 18.716 3.29602 18.971C3.29602 19.226 3.50274 19.4327 3.75772 19.4327H7.58262C7.8376 19.4327 8.04432 19.226 8.04432 18.971C8.04432 18.716 7.8376 18.5093 7.58262 18.5093Z" fill="#3B3A48"/>
</svg>
