<svg width="200" height="200" viewBox="0 0 200 200" fill="none" xmlns="http://www.w3.org/2000/svg">
<path d="M187.928 0L100 100L187.928 200H195.121C197.816 200 200 197.815 200 195.121V4.8793C200 2.18477 197.815 0 195.121 0H187.928Z" fill="#2EA2EF"/>
<path d="M0 4.8793V195.121C0 197.815 2.18477 200 4.8793 200H187.928V0H4.8793C2.18477 0 0 2.18477 0 4.8793Z" fill="#54BBFF"/>
<path d="M175.855 12.0723L100 100L175.855 187.928H187.928V12.0723H175.855Z" fill="#C6E8FF"/>
<path d="M175.855 12.0723H12.0723V187.927H175.855V12.0723Z" fill="#DEF1FF"/>
<path d="M100 154.527C84.5785 154.527 72.032 141.981 72.032 126.559C72.032 122.114 75.6351 118.511 80.0804 118.511C84.5253 118.511 88.1289 122.114 88.1289 126.559C88.1289 133.105 93.4543 138.43 100 138.43C106.546 138.43 111.871 133.105 111.871 126.559V119.92C111.871 113.374 106.546 108.048 100 108.048C95.555 108.048 91.9515 104.445 91.9515 100C91.9515 95.5551 95.5546 91.9516 100 91.9516C106.546 91.9516 111.871 86.6262 111.871 80.0805V73.4406C111.871 66.8949 106.546 61.5695 100 61.5695C93.4543 61.5695 88.1289 66.8949 88.1289 73.4406C88.1289 77.8855 84.5257 81.4891 80.0804 81.4891C75.6355 81.4891 72.032 77.8859 72.032 73.4406C72.032 58.0191 84.5785 45.4727 100 45.4727C115.421 45.4727 127.968 58.0191 127.968 73.4406V80.0805C127.968 87.8691 124.768 94.9238 119.613 100C124.768 105.076 127.968 112.131 127.968 119.92V126.559C127.968 141.981 115.421 154.527 100 154.527Z" fill="#2EA2EF"/>
</svg>
