<svg width="200" height="200" viewBox="0 0 200 200" fill="none" xmlns="http://www.w3.org/2000/svg">
<path d="M187.928 0L100 100L187.928 200H195.121C197.816 200 200 197.815 200 195.121V4.8793C200 2.18477 197.815 0 195.121 0H187.928Z" fill="#2EA2EF"/>
<path d="M0 4.8793V195.121C0 197.815 2.18477 200 4.8793 200H187.928V0H4.8793C2.18477 0 0 2.18477 0 4.8793Z" fill="#54BBFF"/>
<path d="M175.855 12.0723L100 100L175.855 187.928H187.928V12.0723H175.855Z" fill="#C6E8FF"/>
<path d="M175.855 12.0723H12.0723V187.927H175.855V12.0723Z" fill="#DEF1FF"/>
<path d="M119.919 154.527H80.0804C77.1921 154.527 74.5253 152.98 73.0925 150.472C71.6597 147.965 71.68 144.882 73.1464 142.393L110.234 79.4548C111.305 77.6372 111.871 75.5583 111.871 73.4415C111.871 66.8958 106.546 61.5704 100 61.5704C93.4547 61.5704 88.1293 66.8954 88.1293 73.4411C88.1293 77.886 84.5261 81.4896 80.0808 81.4896C75.6359 81.4896 72.0324 77.8864 72.0324 73.4411C72.0324 58.0196 84.5789 45.4731 100 45.4731C115.422 45.4731 127.968 58.0196 127.968 73.4411C127.968 78.431 126.631 83.3364 124.102 87.6275L94.1652 138.431H119.92C124.365 138.431 127.969 142.034 127.969 146.479C127.969 150.925 124.364 154.527 119.919 154.527Z" fill="#2EA2EF"/>
</svg>
